<mxfile host="Electron" modified="2023-04-03T14:41:23.759Z" agent="Mozilla/5.0 (Windows NT 10.0; Win64; x64) AppleWebKit/537.36 (KHTML, like Gecko) draw.io/21.1.2 Chrome/106.0.5249.199 Electron/21.4.3 Safari/537.36" etag="i7Wf_rw6Kv211Wsecwck" version="21.1.2" type="device">
  <diagram id="H3KfTvqpH3EYZ9Be-BMX" name="Page-1">
    <mxGraphModel dx="1950" dy="715" grid="1" gridSize="10" guides="1" tooltips="1" connect="1" arrows="1" fold="1" page="1" pageScale="1" pageWidth="850" pageHeight="1100" math="0" shadow="0">
      <root>
        <mxCell id="0" />
        <mxCell id="1" parent="0" />
        <mxCell id="WimtnYPjau7WILV3dE0_-45" value="Gender" style="swimlane;fontFamily=Helvetica;startSize=23;dropTarget=1;collapsible=1;container=1;rounded=0;" parent="1" vertex="1">
          <mxGeometry x="-20" y="10" width="200" height="200" as="geometry">
            <mxRectangle x="380" y="110" width="80" height="23" as="alternateBounds" />
          </mxGeometry>
        </mxCell>
        <mxCell id="0CC3JniCAvs3rf_kHth--1" value="" style="shape=table;startSize=0;container=1;collapsible=0;childLayout=tableLayout;rowLines=1;swimlaneHead=0;top=0;fillColor=#e1d5e7;strokeColor=#9673a6;movable=0;" parent="WimtnYPjau7WILV3dE0_-45" vertex="1">
          <mxGeometry y="24" width="200" height="160" as="geometry" />
        </mxCell>
        <mxCell id="0CC3JniCAvs3rf_kHth--2" value="" style="shape=tableRow;horizontal=0;startSize=0;swimlaneHead=0;swimlaneBody=0;top=0;left=0;bottom=0;right=0;collapsible=0;dropTarget=0;fillColor=none;points=[[0,0.5],[1,0.5]];portConstraint=eastwest;" parent="0CC3JniCAvs3rf_kHth--1" vertex="1">
          <mxGeometry width="200" height="40" as="geometry" />
        </mxCell>
        <mxCell id="0CC3JniCAvs3rf_kHth--3" value="&lt;b&gt;Name&lt;/b&gt;" style="shape=partialRectangle;html=1;whiteSpace=wrap;connectable=0;overflow=hidden;fillColor=none;top=0;left=0;bottom=0;right=0;pointerEvents=1;" parent="0CC3JniCAvs3rf_kHth--2" vertex="1">
          <mxGeometry width="105" height="40" as="geometry">
            <mxRectangle width="105" height="40" as="alternateBounds" />
          </mxGeometry>
        </mxCell>
        <mxCell id="0CC3JniCAvs3rf_kHth--4" value="&lt;b&gt;Type&lt;/b&gt;" style="shape=partialRectangle;html=1;whiteSpace=wrap;connectable=0;overflow=hidden;fillColor=none;top=0;left=0;bottom=0;right=0;pointerEvents=1;" parent="0CC3JniCAvs3rf_kHth--2" vertex="1">
          <mxGeometry x="105" width="95" height="40" as="geometry">
            <mxRectangle width="95" height="40" as="alternateBounds" />
          </mxGeometry>
        </mxCell>
        <mxCell id="0CC3JniCAvs3rf_kHth--95" style="shape=tableRow;horizontal=0;startSize=0;swimlaneHead=0;swimlaneBody=0;top=0;left=0;bottom=0;right=0;collapsible=0;dropTarget=0;fillColor=none;points=[[0,0.5],[1,0.5]];portConstraint=eastwest;" parent="0CC3JniCAvs3rf_kHth--1" vertex="1">
          <mxGeometry y="40" width="200" height="40" as="geometry" />
        </mxCell>
        <mxCell id="0CC3JniCAvs3rf_kHth--96" value="id" style="shape=partialRectangle;html=1;whiteSpace=wrap;connectable=0;overflow=hidden;fillColor=none;top=0;left=0;bottom=0;right=0;pointerEvents=1;" parent="0CC3JniCAvs3rf_kHth--95" vertex="1">
          <mxGeometry width="105" height="40" as="geometry">
            <mxRectangle width="105" height="40" as="alternateBounds" />
          </mxGeometry>
        </mxCell>
        <mxCell id="0CC3JniCAvs3rf_kHth--97" value="Integer" style="shape=partialRectangle;html=1;whiteSpace=wrap;connectable=0;overflow=hidden;fillColor=none;top=0;left=0;bottom=0;right=0;pointerEvents=1;" parent="0CC3JniCAvs3rf_kHth--95" vertex="1">
          <mxGeometry x="105" width="95" height="40" as="geometry">
            <mxRectangle width="95" height="40" as="alternateBounds" />
          </mxGeometry>
        </mxCell>
        <mxCell id="0CC3JniCAvs3rf_kHth--5" value="" style="shape=tableRow;horizontal=0;startSize=0;swimlaneHead=0;swimlaneBody=0;top=0;left=0;bottom=0;right=0;collapsible=0;dropTarget=0;fillColor=none;points=[[0,0.5],[1,0.5]];portConstraint=eastwest;" parent="0CC3JniCAvs3rf_kHth--1" vertex="1">
          <mxGeometry y="80" width="200" height="40" as="geometry" />
        </mxCell>
        <mxCell id="0CC3JniCAvs3rf_kHth--6" value="gender" style="shape=partialRectangle;html=1;whiteSpace=wrap;connectable=0;overflow=hidden;fillColor=none;top=0;left=0;bottom=0;right=0;pointerEvents=1;" parent="0CC3JniCAvs3rf_kHth--5" vertex="1">
          <mxGeometry width="105" height="40" as="geometry">
            <mxRectangle width="105" height="40" as="alternateBounds" />
          </mxGeometry>
        </mxCell>
        <mxCell id="0CC3JniCAvs3rf_kHth--7" value="String" style="shape=partialRectangle;html=1;whiteSpace=wrap;connectable=0;overflow=hidden;fillColor=none;top=0;left=0;bottom=0;right=0;pointerEvents=1;" parent="0CC3JniCAvs3rf_kHth--5" vertex="1">
          <mxGeometry x="105" width="95" height="40" as="geometry">
            <mxRectangle width="95" height="40" as="alternateBounds" />
          </mxGeometry>
        </mxCell>
        <mxCell id="0CC3JniCAvs3rf_kHth--112" style="shape=tableRow;horizontal=0;startSize=0;swimlaneHead=0;swimlaneBody=0;top=0;left=0;bottom=0;right=0;collapsible=0;dropTarget=0;fillColor=none;points=[[0,0.5],[1,0.5]];portConstraint=eastwest;" parent="0CC3JniCAvs3rf_kHth--1" vertex="1">
          <mxGeometry y="120" width="200" height="40" as="geometry" />
        </mxCell>
        <mxCell id="0CC3JniCAvs3rf_kHth--113" value="users" style="shape=partialRectangle;html=1;whiteSpace=wrap;connectable=0;overflow=hidden;fillColor=none;top=0;left=0;bottom=0;right=0;pointerEvents=1;" parent="0CC3JniCAvs3rf_kHth--112" vertex="1">
          <mxGeometry width="105" height="40" as="geometry">
            <mxRectangle width="105" height="40" as="alternateBounds" />
          </mxGeometry>
        </mxCell>
        <mxCell id="0CC3JniCAvs3rf_kHth--114" value="backref" style="shape=partialRectangle;html=1;whiteSpace=wrap;connectable=0;overflow=hidden;fillColor=none;top=0;left=0;bottom=0;right=0;pointerEvents=1;" parent="0CC3JniCAvs3rf_kHth--112" vertex="1">
          <mxGeometry x="105" width="95" height="40" as="geometry">
            <mxRectangle width="95" height="40" as="alternateBounds" />
          </mxGeometry>
        </mxCell>
        <mxCell id="0CC3JniCAvs3rf_kHth--40" value="Role" style="swimlane;fontFamily=Helvetica;startSize=23;dropTarget=1;collapsible=1;container=1;rounded=0;" parent="1" vertex="1">
          <mxGeometry x="600" y="160" width="200" height="200" as="geometry">
            <mxRectangle x="380" y="110" width="80" height="23" as="alternateBounds" />
          </mxGeometry>
        </mxCell>
        <mxCell id="0CC3JniCAvs3rf_kHth--41" value="" style="shape=table;startSize=0;container=1;collapsible=0;childLayout=tableLayout;rowLines=1;swimlaneHead=0;top=0;fillColor=#e1d5e7;strokeColor=#9673a6;movable=0;" parent="0CC3JniCAvs3rf_kHth--40" vertex="1">
          <mxGeometry y="24" width="200" height="160" as="geometry" />
        </mxCell>
        <mxCell id="0CC3JniCAvs3rf_kHth--42" value="" style="shape=tableRow;horizontal=0;startSize=0;swimlaneHead=0;swimlaneBody=0;top=0;left=0;bottom=0;right=0;collapsible=0;dropTarget=0;fillColor=none;points=[[0,0.5],[1,0.5]];portConstraint=eastwest;" parent="0CC3JniCAvs3rf_kHth--41" vertex="1">
          <mxGeometry width="200" height="40" as="geometry" />
        </mxCell>
        <mxCell id="0CC3JniCAvs3rf_kHth--43" value="&lt;b&gt;Name&lt;/b&gt;" style="shape=partialRectangle;html=1;whiteSpace=wrap;connectable=0;overflow=hidden;fillColor=none;top=0;left=0;bottom=0;right=0;pointerEvents=1;" parent="0CC3JniCAvs3rf_kHth--42" vertex="1">
          <mxGeometry width="105" height="40" as="geometry">
            <mxRectangle width="105" height="40" as="alternateBounds" />
          </mxGeometry>
        </mxCell>
        <mxCell id="0CC3JniCAvs3rf_kHth--44" value="&lt;b&gt;Type&lt;/b&gt;" style="shape=partialRectangle;html=1;whiteSpace=wrap;connectable=0;overflow=hidden;fillColor=none;top=0;left=0;bottom=0;right=0;pointerEvents=1;" parent="0CC3JniCAvs3rf_kHth--42" vertex="1">
          <mxGeometry x="105" width="95" height="40" as="geometry">
            <mxRectangle width="95" height="40" as="alternateBounds" />
          </mxGeometry>
        </mxCell>
        <mxCell id="0CC3JniCAvs3rf_kHth--98" style="shape=tableRow;horizontal=0;startSize=0;swimlaneHead=0;swimlaneBody=0;top=0;left=0;bottom=0;right=0;collapsible=0;dropTarget=0;fillColor=none;points=[[0,0.5],[1,0.5]];portConstraint=eastwest;" parent="0CC3JniCAvs3rf_kHth--41" vertex="1">
          <mxGeometry y="40" width="200" height="40" as="geometry" />
        </mxCell>
        <mxCell id="0CC3JniCAvs3rf_kHth--99" value="id" style="shape=partialRectangle;html=1;whiteSpace=wrap;connectable=0;overflow=hidden;fillColor=none;top=0;left=0;bottom=0;right=0;pointerEvents=1;" parent="0CC3JniCAvs3rf_kHth--98" vertex="1">
          <mxGeometry width="105" height="40" as="geometry">
            <mxRectangle width="105" height="40" as="alternateBounds" />
          </mxGeometry>
        </mxCell>
        <mxCell id="0CC3JniCAvs3rf_kHth--100" value="Integer" style="shape=partialRectangle;html=1;whiteSpace=wrap;connectable=0;overflow=hidden;fillColor=none;top=0;left=0;bottom=0;right=0;pointerEvents=1;" parent="0CC3JniCAvs3rf_kHth--98" vertex="1">
          <mxGeometry x="105" width="95" height="40" as="geometry">
            <mxRectangle width="95" height="40" as="alternateBounds" />
          </mxGeometry>
        </mxCell>
        <mxCell id="0CC3JniCAvs3rf_kHth--45" value="" style="shape=tableRow;horizontal=0;startSize=0;swimlaneHead=0;swimlaneBody=0;top=0;left=0;bottom=0;right=0;collapsible=0;dropTarget=0;fillColor=none;points=[[0,0.5],[1,0.5]];portConstraint=eastwest;" parent="0CC3JniCAvs3rf_kHth--41" vertex="1">
          <mxGeometry y="80" width="200" height="40" as="geometry" />
        </mxCell>
        <mxCell id="0CC3JniCAvs3rf_kHth--46" value="name" style="shape=partialRectangle;html=1;whiteSpace=wrap;connectable=0;overflow=hidden;fillColor=none;top=0;left=0;bottom=0;right=0;pointerEvents=1;" parent="0CC3JniCAvs3rf_kHth--45" vertex="1">
          <mxGeometry width="105" height="40" as="geometry">
            <mxRectangle width="105" height="40" as="alternateBounds" />
          </mxGeometry>
        </mxCell>
        <mxCell id="0CC3JniCAvs3rf_kHth--47" value="String" style="shape=partialRectangle;html=1;whiteSpace=wrap;connectable=0;overflow=hidden;fillColor=none;top=0;left=0;bottom=0;right=0;pointerEvents=1;" parent="0CC3JniCAvs3rf_kHth--45" vertex="1">
          <mxGeometry x="105" width="95" height="40" as="geometry">
            <mxRectangle width="95" height="40" as="alternateBounds" />
          </mxGeometry>
        </mxCell>
        <mxCell id="0CC3JniCAvs3rf_kHth--48" value="" style="shape=tableRow;horizontal=0;startSize=0;swimlaneHead=0;swimlaneBody=0;top=0;left=0;bottom=0;right=0;collapsible=0;dropTarget=0;fillColor=none;points=[[0,0.5],[1,0.5]];portConstraint=eastwest;" parent="0CC3JniCAvs3rf_kHth--41" vertex="1">
          <mxGeometry y="120" width="200" height="40" as="geometry" />
        </mxCell>
        <mxCell id="0CC3JniCAvs3rf_kHth--49" value="user_id" style="shape=partialRectangle;html=1;whiteSpace=wrap;connectable=0;overflow=hidden;fillColor=none;top=0;left=0;bottom=0;right=0;pointerEvents=1;" parent="0CC3JniCAvs3rf_kHth--48" vertex="1">
          <mxGeometry width="105" height="40" as="geometry">
            <mxRectangle width="105" height="40" as="alternateBounds" />
          </mxGeometry>
        </mxCell>
        <mxCell id="0CC3JniCAvs3rf_kHth--50" value="backref" style="shape=partialRectangle;html=1;whiteSpace=wrap;connectable=0;overflow=hidden;fillColor=none;top=0;left=0;bottom=0;right=0;pointerEvents=1;" parent="0CC3JniCAvs3rf_kHth--48" vertex="1">
          <mxGeometry x="105" width="95" height="40" as="geometry">
            <mxRectangle width="95" height="40" as="alternateBounds" />
          </mxGeometry>
        </mxCell>
        <mxCell id="0CC3JniCAvs3rf_kHth--51" value="User" style="swimlane;fontFamily=Helvetica;startSize=23;dropTarget=1;collapsible=1;container=1;rounded=0;" parent="1" vertex="1">
          <mxGeometry x="325" y="40" width="200" height="680" as="geometry">
            <mxRectangle x="380" y="110" width="80" height="23" as="alternateBounds" />
          </mxGeometry>
        </mxCell>
        <mxCell id="0CC3JniCAvs3rf_kHth--52" value="" style="shape=table;startSize=0;container=1;collapsible=0;childLayout=tableLayout;rowLines=1;swimlaneHead=0;top=0;fillColor=#e1d5e7;strokeColor=#9673a6;movable=0;" parent="0CC3JniCAvs3rf_kHth--51" vertex="1">
          <mxGeometry y="24" width="200" height="600" as="geometry" />
        </mxCell>
        <mxCell id="0CC3JniCAvs3rf_kHth--53" value="" style="shape=tableRow;horizontal=0;startSize=0;swimlaneHead=0;swimlaneBody=0;top=0;left=0;bottom=0;right=0;collapsible=0;dropTarget=0;fillColor=none;points=[[0,0.5],[1,0.5]];portConstraint=eastwest;" parent="0CC3JniCAvs3rf_kHth--52" vertex="1">
          <mxGeometry width="200" height="40" as="geometry" />
        </mxCell>
        <mxCell id="0CC3JniCAvs3rf_kHth--54" value="&lt;b&gt;Name&lt;/b&gt;" style="shape=partialRectangle;html=1;whiteSpace=wrap;connectable=0;overflow=hidden;fillColor=none;top=0;left=0;bottom=0;right=0;pointerEvents=1;" parent="0CC3JniCAvs3rf_kHth--53" vertex="1">
          <mxGeometry width="105" height="40" as="geometry">
            <mxRectangle width="105" height="40" as="alternateBounds" />
          </mxGeometry>
        </mxCell>
        <mxCell id="0CC3JniCAvs3rf_kHth--55" value="&lt;b&gt;Type&lt;/b&gt;" style="shape=partialRectangle;html=1;whiteSpace=wrap;connectable=0;overflow=hidden;fillColor=none;top=0;left=0;bottom=0;right=0;pointerEvents=1;" parent="0CC3JniCAvs3rf_kHth--53" vertex="1">
          <mxGeometry x="105" width="95" height="40" as="geometry">
            <mxRectangle width="95" height="40" as="alternateBounds" />
          </mxGeometry>
        </mxCell>
        <mxCell id="0CC3JniCAvs3rf_kHth--56" value="" style="shape=tableRow;horizontal=0;startSize=0;swimlaneHead=0;swimlaneBody=0;top=0;left=0;bottom=0;right=0;collapsible=0;dropTarget=0;fillColor=none;points=[[0,0.5],[1,0.5]];portConstraint=eastwest;" parent="0CC3JniCAvs3rf_kHth--52" vertex="1">
          <mxGeometry y="40" width="200" height="40" as="geometry" />
        </mxCell>
        <mxCell id="0CC3JniCAvs3rf_kHth--57" value="id" style="shape=partialRectangle;html=1;whiteSpace=wrap;connectable=0;overflow=hidden;fillColor=none;top=0;left=0;bottom=0;right=0;pointerEvents=1;" parent="0CC3JniCAvs3rf_kHth--56" vertex="1">
          <mxGeometry width="105" height="40" as="geometry">
            <mxRectangle width="105" height="40" as="alternateBounds" />
          </mxGeometry>
        </mxCell>
        <mxCell id="0CC3JniCAvs3rf_kHth--58" value="Integer" style="shape=partialRectangle;html=1;whiteSpace=wrap;connectable=0;overflow=hidden;fillColor=none;top=0;left=0;bottom=0;right=0;pointerEvents=1;" parent="0CC3JniCAvs3rf_kHth--56" vertex="1">
          <mxGeometry x="105" width="95" height="40" as="geometry">
            <mxRectangle width="95" height="40" as="alternateBounds" />
          </mxGeometry>
        </mxCell>
        <mxCell id="0CC3JniCAvs3rf_kHth--59" value="" style="shape=tableRow;horizontal=0;startSize=0;swimlaneHead=0;swimlaneBody=0;top=0;left=0;bottom=0;right=0;collapsible=0;dropTarget=0;fillColor=none;points=[[0,0.5],[1,0.5]];portConstraint=eastwest;" parent="0CC3JniCAvs3rf_kHth--52" vertex="1">
          <mxGeometry y="80" width="200" height="40" as="geometry" />
        </mxCell>
        <mxCell id="0CC3JniCAvs3rf_kHth--60" value="username" style="shape=partialRectangle;html=1;whiteSpace=wrap;connectable=0;overflow=hidden;fillColor=none;top=0;left=0;bottom=0;right=0;pointerEvents=1;" parent="0CC3JniCAvs3rf_kHth--59" vertex="1">
          <mxGeometry width="105" height="40" as="geometry">
            <mxRectangle width="105" height="40" as="alternateBounds" />
          </mxGeometry>
        </mxCell>
        <mxCell id="0CC3JniCAvs3rf_kHth--61" value="String" style="shape=partialRectangle;html=1;whiteSpace=wrap;connectable=0;overflow=hidden;fillColor=none;top=0;left=0;bottom=0;right=0;pointerEvents=1;" parent="0CC3JniCAvs3rf_kHth--59" vertex="1">
          <mxGeometry x="105" width="95" height="40" as="geometry">
            <mxRectangle width="95" height="40" as="alternateBounds" />
          </mxGeometry>
        </mxCell>
        <mxCell id="0CC3JniCAvs3rf_kHth--62" style="shape=tableRow;horizontal=0;startSize=0;swimlaneHead=0;swimlaneBody=0;top=0;left=0;bottom=0;right=0;collapsible=0;dropTarget=0;fillColor=none;points=[[0,0.5],[1,0.5]];portConstraint=eastwest;" parent="0CC3JniCAvs3rf_kHth--52" vertex="1">
          <mxGeometry y="120" width="200" height="40" as="geometry" />
        </mxCell>
        <mxCell id="0CC3JniCAvs3rf_kHth--63" value="email" style="shape=partialRectangle;html=1;whiteSpace=wrap;connectable=0;overflow=hidden;fillColor=none;top=0;left=0;bottom=0;right=0;pointerEvents=1;" parent="0CC3JniCAvs3rf_kHth--62" vertex="1">
          <mxGeometry width="105" height="40" as="geometry">
            <mxRectangle width="105" height="40" as="alternateBounds" />
          </mxGeometry>
        </mxCell>
        <mxCell id="0CC3JniCAvs3rf_kHth--64" value="String" style="shape=partialRectangle;html=1;whiteSpace=wrap;connectable=0;overflow=hidden;fillColor=none;top=0;left=0;bottom=0;right=0;pointerEvents=1;" parent="0CC3JniCAvs3rf_kHth--62" vertex="1">
          <mxGeometry x="105" width="95" height="40" as="geometry">
            <mxRectangle width="95" height="40" as="alternateBounds" />
          </mxGeometry>
        </mxCell>
        <mxCell id="0CC3JniCAvs3rf_kHth--68" style="shape=tableRow;horizontal=0;startSize=0;swimlaneHead=0;swimlaneBody=0;top=0;left=0;bottom=0;right=0;collapsible=0;dropTarget=0;fillColor=none;points=[[0,0.5],[1,0.5]];portConstraint=eastwest;" parent="0CC3JniCAvs3rf_kHth--52" vertex="1">
          <mxGeometry y="160" width="200" height="40" as="geometry" />
        </mxCell>
        <mxCell id="0CC3JniCAvs3rf_kHth--69" value="balance" style="shape=partialRectangle;html=1;whiteSpace=wrap;connectable=0;overflow=hidden;fillColor=none;top=0;left=0;bottom=0;right=0;pointerEvents=1;" parent="0CC3JniCAvs3rf_kHth--68" vertex="1">
          <mxGeometry width="105" height="40" as="geometry">
            <mxRectangle width="105" height="40" as="alternateBounds" />
          </mxGeometry>
        </mxCell>
        <mxCell id="0CC3JniCAvs3rf_kHth--70" value="Integer" style="shape=partialRectangle;html=1;whiteSpace=wrap;connectable=0;overflow=hidden;fillColor=none;top=0;left=0;bottom=0;right=0;pointerEvents=1;" parent="0CC3JniCAvs3rf_kHth--68" vertex="1">
          <mxGeometry x="105" width="95" height="40" as="geometry">
            <mxRectangle width="95" height="40" as="alternateBounds" />
          </mxGeometry>
        </mxCell>
        <mxCell id="0CC3JniCAvs3rf_kHth--71" style="shape=tableRow;horizontal=0;startSize=0;swimlaneHead=0;swimlaneBody=0;top=0;left=0;bottom=0;right=0;collapsible=0;dropTarget=0;fillColor=none;points=[[0,0.5],[1,0.5]];portConstraint=eastwest;" parent="0CC3JniCAvs3rf_kHth--52" vertex="1">
          <mxGeometry y="200" width="200" height="40" as="geometry" />
        </mxCell>
        <mxCell id="0CC3JniCAvs3rf_kHth--72" value="password_hash" style="shape=partialRectangle;html=1;whiteSpace=wrap;connectable=0;overflow=hidden;fillColor=none;top=0;left=0;bottom=0;right=0;pointerEvents=1;" parent="0CC3JniCAvs3rf_kHth--71" vertex="1">
          <mxGeometry width="105" height="40" as="geometry">
            <mxRectangle width="105" height="40" as="alternateBounds" />
          </mxGeometry>
        </mxCell>
        <mxCell id="0CC3JniCAvs3rf_kHth--73" value="String" style="shape=partialRectangle;html=1;whiteSpace=wrap;connectable=0;overflow=hidden;fillColor=none;top=0;left=0;bottom=0;right=0;pointerEvents=1;" parent="0CC3JniCAvs3rf_kHth--71" vertex="1">
          <mxGeometry x="105" width="95" height="40" as="geometry">
            <mxRectangle width="95" height="40" as="alternateBounds" />
          </mxGeometry>
        </mxCell>
        <mxCell id="0CC3JniCAvs3rf_kHth--74" style="shape=tableRow;horizontal=0;startSize=0;swimlaneHead=0;swimlaneBody=0;top=0;left=0;bottom=0;right=0;collapsible=0;dropTarget=0;fillColor=none;points=[[0,0.5],[1,0.5]];portConstraint=eastwest;" parent="0CC3JniCAvs3rf_kHth--52" vertex="1">
          <mxGeometry y="240" width="200" height="40" as="geometry" />
        </mxCell>
        <mxCell id="0CC3JniCAvs3rf_kHth--75" value="image" style="shape=partialRectangle;html=1;whiteSpace=wrap;connectable=0;overflow=hidden;fillColor=none;top=0;left=0;bottom=0;right=0;pointerEvents=1;" parent="0CC3JniCAvs3rf_kHth--74" vertex="1">
          <mxGeometry width="105" height="40" as="geometry">
            <mxRectangle width="105" height="40" as="alternateBounds" />
          </mxGeometry>
        </mxCell>
        <mxCell id="0CC3JniCAvs3rf_kHth--76" value="String" style="shape=partialRectangle;html=1;whiteSpace=wrap;connectable=0;overflow=hidden;fillColor=none;top=0;left=0;bottom=0;right=0;pointerEvents=1;" parent="0CC3JniCAvs3rf_kHth--74" vertex="1">
          <mxGeometry x="105" width="95" height="40" as="geometry">
            <mxRectangle width="95" height="40" as="alternateBounds" />
          </mxGeometry>
        </mxCell>
        <mxCell id="0CC3JniCAvs3rf_kHth--77" style="shape=tableRow;horizontal=0;startSize=0;swimlaneHead=0;swimlaneBody=0;top=0;left=0;bottom=0;right=0;collapsible=0;dropTarget=0;fillColor=none;points=[[0,0.5],[1,0.5]];portConstraint=eastwest;" parent="0CC3JniCAvs3rf_kHth--52" vertex="1">
          <mxGeometry y="280" width="200" height="40" as="geometry" />
        </mxCell>
        <mxCell id="0CC3JniCAvs3rf_kHth--78" value="age" style="shape=partialRectangle;html=1;whiteSpace=wrap;connectable=0;overflow=hidden;fillColor=none;top=0;left=0;bottom=0;right=0;pointerEvents=1;" parent="0CC3JniCAvs3rf_kHth--77" vertex="1">
          <mxGeometry width="105" height="40" as="geometry">
            <mxRectangle width="105" height="40" as="alternateBounds" />
          </mxGeometry>
        </mxCell>
        <mxCell id="0CC3JniCAvs3rf_kHth--79" value="Integer" style="shape=partialRectangle;html=1;whiteSpace=wrap;connectable=0;overflow=hidden;fillColor=none;top=0;left=0;bottom=0;right=0;pointerEvents=1;" parent="0CC3JniCAvs3rf_kHth--77" vertex="1">
          <mxGeometry x="105" width="95" height="40" as="geometry">
            <mxRectangle width="95" height="40" as="alternateBounds" />
          </mxGeometry>
        </mxCell>
        <mxCell id="0CC3JniCAvs3rf_kHth--80" style="shape=tableRow;horizontal=0;startSize=0;swimlaneHead=0;swimlaneBody=0;top=0;left=0;bottom=0;right=0;collapsible=0;dropTarget=0;fillColor=none;points=[[0,0.5],[1,0.5]];portConstraint=eastwest;" parent="0CC3JniCAvs3rf_kHth--52" vertex="1">
          <mxGeometry y="320" width="200" height="40" as="geometry" />
        </mxCell>
        <mxCell id="0CC3JniCAvs3rf_kHth--81" value="fee" style="shape=partialRectangle;html=1;whiteSpace=wrap;connectable=0;overflow=hidden;fillColor=none;top=0;left=0;bottom=0;right=0;pointerEvents=1;" parent="0CC3JniCAvs3rf_kHth--80" vertex="1">
          <mxGeometry width="105" height="40" as="geometry">
            <mxRectangle width="105" height="40" as="alternateBounds" />
          </mxGeometry>
        </mxCell>
        <mxCell id="0CC3JniCAvs3rf_kHth--82" value="Integer" style="shape=partialRectangle;html=1;whiteSpace=wrap;connectable=0;overflow=hidden;fillColor=none;top=0;left=0;bottom=0;right=0;pointerEvents=1;" parent="0CC3JniCAvs3rf_kHth--80" vertex="1">
          <mxGeometry x="105" width="95" height="40" as="geometry">
            <mxRectangle width="95" height="40" as="alternateBounds" />
          </mxGeometry>
        </mxCell>
        <mxCell id="0CC3JniCAvs3rf_kHth--83" style="shape=tableRow;horizontal=0;startSize=0;swimlaneHead=0;swimlaneBody=0;top=0;left=0;bottom=0;right=0;collapsible=0;dropTarget=0;fillColor=none;points=[[0,0.5],[1,0.5]];portConstraint=eastwest;" parent="0CC3JniCAvs3rf_kHth--52" vertex="1">
          <mxGeometry y="360" width="200" height="40" as="geometry" />
        </mxCell>
        <mxCell id="0CC3JniCAvs3rf_kHth--84" value="experience" style="shape=partialRectangle;html=1;whiteSpace=wrap;connectable=0;overflow=hidden;fillColor=none;top=0;left=0;bottom=0;right=0;pointerEvents=1;" parent="0CC3JniCAvs3rf_kHth--83" vertex="1">
          <mxGeometry width="105" height="40" as="geometry">
            <mxRectangle width="105" height="40" as="alternateBounds" />
          </mxGeometry>
        </mxCell>
        <mxCell id="0CC3JniCAvs3rf_kHth--85" value="Integer" style="shape=partialRectangle;html=1;whiteSpace=wrap;connectable=0;overflow=hidden;fillColor=none;top=0;left=0;bottom=0;right=0;pointerEvents=1;" parent="0CC3JniCAvs3rf_kHth--83" vertex="1">
          <mxGeometry x="105" width="95" height="40" as="geometry">
            <mxRectangle width="95" height="40" as="alternateBounds" />
          </mxGeometry>
        </mxCell>
        <mxCell id="0CC3JniCAvs3rf_kHth--86" style="shape=tableRow;horizontal=0;startSize=0;swimlaneHead=0;swimlaneBody=0;top=0;left=0;bottom=0;right=0;collapsible=0;dropTarget=0;fillColor=none;points=[[0,0.5],[1,0.5]];portConstraint=eastwest;" parent="0CC3JniCAvs3rf_kHth--52" vertex="1">
          <mxGeometry y="400" width="200" height="40" as="geometry" />
        </mxCell>
        <mxCell id="0CC3JniCAvs3rf_kHth--87" value="type_of" style="shape=partialRectangle;html=1;whiteSpace=wrap;connectable=0;overflow=hidden;fillColor=none;top=0;left=0;bottom=0;right=0;pointerEvents=1;" parent="0CC3JniCAvs3rf_kHth--86" vertex="1">
          <mxGeometry width="105" height="40" as="geometry">
            <mxRectangle width="105" height="40" as="alternateBounds" />
          </mxGeometry>
        </mxCell>
        <mxCell id="0CC3JniCAvs3rf_kHth--88" value="ID" style="shape=partialRectangle;html=1;whiteSpace=wrap;connectable=0;overflow=hidden;fillColor=none;top=0;left=0;bottom=0;right=0;pointerEvents=1;" parent="0CC3JniCAvs3rf_kHth--86" vertex="1">
          <mxGeometry x="105" width="95" height="40" as="geometry">
            <mxRectangle width="95" height="40" as="alternateBounds" />
          </mxGeometry>
        </mxCell>
        <mxCell id="0CC3JniCAvs3rf_kHth--89" style="shape=tableRow;horizontal=0;startSize=0;swimlaneHead=0;swimlaneBody=0;top=0;left=0;bottom=0;right=0;collapsible=0;dropTarget=0;fillColor=none;points=[[0,0.5],[1,0.5]];portConstraint=eastwest;" parent="0CC3JniCAvs3rf_kHth--52" vertex="1">
          <mxGeometry y="440" width="200" height="40" as="geometry" />
        </mxCell>
        <mxCell id="0CC3JniCAvs3rf_kHth--90" value="role_id" style="shape=partialRectangle;html=1;whiteSpace=wrap;connectable=0;overflow=hidden;fillColor=none;top=0;left=0;bottom=0;right=0;pointerEvents=1;" parent="0CC3JniCAvs3rf_kHth--89" vertex="1">
          <mxGeometry width="105" height="40" as="geometry">
            <mxRectangle width="105" height="40" as="alternateBounds" />
          </mxGeometry>
        </mxCell>
        <mxCell id="0CC3JniCAvs3rf_kHth--91" value="ID" style="shape=partialRectangle;html=1;whiteSpace=wrap;connectable=0;overflow=hidden;fillColor=none;top=0;left=0;bottom=0;right=0;pointerEvents=1;" parent="0CC3JniCAvs3rf_kHth--89" vertex="1">
          <mxGeometry x="105" width="95" height="40" as="geometry">
            <mxRectangle width="95" height="40" as="alternateBounds" />
          </mxGeometry>
        </mxCell>
        <mxCell id="0CC3JniCAvs3rf_kHth--108" style="shape=tableRow;horizontal=0;startSize=0;swimlaneHead=0;swimlaneBody=0;top=0;left=0;bottom=0;right=0;collapsible=0;dropTarget=0;fillColor=none;points=[[0,0.5],[1,0.5]];portConstraint=eastwest;" parent="0CC3JniCAvs3rf_kHth--52" vertex="1">
          <mxGeometry y="480" width="200" height="40" as="geometry" />
        </mxCell>
        <mxCell id="0CC3JniCAvs3rf_kHth--109" value="gender" style="shape=partialRectangle;html=1;whiteSpace=wrap;connectable=0;overflow=hidden;fillColor=none;top=0;left=0;bottom=0;right=0;pointerEvents=1;" parent="0CC3JniCAvs3rf_kHth--108" vertex="1">
          <mxGeometry width="105" height="40" as="geometry">
            <mxRectangle width="105" height="40" as="alternateBounds" />
          </mxGeometry>
        </mxCell>
        <mxCell id="0CC3JniCAvs3rf_kHth--110" value="ID" style="shape=partialRectangle;html=1;whiteSpace=wrap;connectable=0;overflow=hidden;fillColor=none;top=0;left=0;bottom=0;right=0;pointerEvents=1;" parent="0CC3JniCAvs3rf_kHth--108" vertex="1">
          <mxGeometry x="105" width="95" height="40" as="geometry">
            <mxRectangle width="95" height="40" as="alternateBounds" />
          </mxGeometry>
        </mxCell>
        <mxCell id="0CC3JniCAvs3rf_kHth--105" style="shape=tableRow;horizontal=0;startSize=0;swimlaneHead=0;swimlaneBody=0;top=0;left=0;bottom=0;right=0;collapsible=0;dropTarget=0;fillColor=none;points=[[0,0.5],[1,0.5]];portConstraint=eastwest;" parent="0CC3JniCAvs3rf_kHth--52" vertex="1">
          <mxGeometry y="520" width="200" height="40" as="geometry" />
        </mxCell>
        <mxCell id="0CC3JniCAvs3rf_kHth--106" value="sessions" style="shape=partialRectangle;html=1;whiteSpace=wrap;connectable=0;overflow=hidden;fillColor=none;top=0;left=0;bottom=0;right=0;pointerEvents=1;" parent="0CC3JniCAvs3rf_kHth--105" vertex="1">
          <mxGeometry width="105" height="40" as="geometry">
            <mxRectangle width="105" height="40" as="alternateBounds" />
          </mxGeometry>
        </mxCell>
        <mxCell id="0CC3JniCAvs3rf_kHth--107" value="backref" style="shape=partialRectangle;html=1;whiteSpace=wrap;connectable=0;overflow=hidden;fillColor=none;top=0;left=0;bottom=0;right=0;pointerEvents=1;" parent="0CC3JniCAvs3rf_kHth--105" vertex="1">
          <mxGeometry x="105" width="95" height="40" as="geometry">
            <mxRectangle width="95" height="40" as="alternateBounds" />
          </mxGeometry>
        </mxCell>
        <mxCell id="0CC3JniCAvs3rf_kHth--102" style="shape=tableRow;horizontal=0;startSize=0;swimlaneHead=0;swimlaneBody=0;top=0;left=0;bottom=0;right=0;collapsible=0;dropTarget=0;fillColor=none;points=[[0,0.5],[1,0.5]];portConstraint=eastwest;" parent="0CC3JniCAvs3rf_kHth--52" vertex="1">
          <mxGeometry y="560" width="200" height="40" as="geometry" />
        </mxCell>
        <mxCell id="0CC3JniCAvs3rf_kHth--103" value="description" style="shape=partialRectangle;html=1;whiteSpace=wrap;connectable=0;overflow=hidden;fillColor=none;top=0;left=0;bottom=0;right=0;pointerEvents=1;" parent="0CC3JniCAvs3rf_kHth--102" vertex="1">
          <mxGeometry width="105" height="40" as="geometry">
            <mxRectangle width="105" height="40" as="alternateBounds" />
          </mxGeometry>
        </mxCell>
        <mxCell id="0CC3JniCAvs3rf_kHth--104" value="String" style="shape=partialRectangle;html=1;whiteSpace=wrap;connectable=0;overflow=hidden;fillColor=none;top=0;left=0;bottom=0;right=0;pointerEvents=1;" parent="0CC3JniCAvs3rf_kHth--102" vertex="1">
          <mxGeometry x="105" width="95" height="40" as="geometry">
            <mxRectangle width="95" height="40" as="alternateBounds" />
          </mxGeometry>
        </mxCell>
        <mxCell id="0CC3JniCAvs3rf_kHth--117" style="edgeStyle=orthogonalEdgeStyle;rounded=0;orthogonalLoop=1;jettySize=auto;html=1;entryX=1;entryY=0.5;entryDx=0;entryDy=0;" parent="1" source="0CC3JniCAvs3rf_kHth--108" target="0CC3JniCAvs3rf_kHth--95" edge="1">
          <mxGeometry relative="1" as="geometry">
            <mxPoint x="280" y="210" as="targetPoint" />
            <Array as="points">
              <mxPoint x="270" y="564" />
              <mxPoint x="270" y="204" />
              <mxPoint x="200" y="204" />
              <mxPoint x="200" y="94" />
            </Array>
          </mxGeometry>
        </mxCell>
        <mxCell id="0CC3JniCAvs3rf_kHth--118" style="edgeStyle=orthogonalEdgeStyle;rounded=0;orthogonalLoop=1;jettySize=auto;html=1;entryX=0;entryY=0.5;entryDx=0;entryDy=0;" parent="1" source="0CC3JniCAvs3rf_kHth--112" target="0CC3JniCAvs3rf_kHth--56" edge="1">
          <mxGeometry relative="1" as="geometry" />
        </mxCell>
        <mxCell id="0CC3JniCAvs3rf_kHth--119" style="edgeStyle=orthogonalEdgeStyle;rounded=0;orthogonalLoop=1;jettySize=auto;html=1;entryX=0;entryY=0.5;entryDx=0;entryDy=0;" parent="1" source="0CC3JniCAvs3rf_kHth--89" target="0CC3JniCAvs3rf_kHth--98" edge="1">
          <mxGeometry relative="1" as="geometry" />
        </mxCell>
        <mxCell id="0CC3JniCAvs3rf_kHth--120" style="edgeStyle=orthogonalEdgeStyle;rounded=0;orthogonalLoop=1;jettySize=auto;html=1;entryX=1.022;entryY=0.715;entryDx=0;entryDy=0;entryPerimeter=0;" parent="1" source="0CC3JniCAvs3rf_kHth--48" target="0CC3JniCAvs3rf_kHth--56" edge="1">
          <mxGeometry relative="1" as="geometry">
            <Array as="points">
              <mxPoint x="550" y="324" />
              <mxPoint x="550" y="133" />
            </Array>
          </mxGeometry>
        </mxCell>
        <mxCell id="0CC3JniCAvs3rf_kHth--132" value="CounsellorType" style="swimlane;fontFamily=Helvetica;startSize=23;dropTarget=1;collapsible=1;container=1;rounded=0;" parent="1" vertex="1">
          <mxGeometry x="20" y="380" width="200" height="200" as="geometry">
            <mxRectangle x="380" y="110" width="80" height="23" as="alternateBounds" />
          </mxGeometry>
        </mxCell>
        <mxCell id="0CC3JniCAvs3rf_kHth--133" value="" style="shape=table;startSize=0;container=1;collapsible=0;childLayout=tableLayout;rowLines=1;swimlaneHead=0;top=0;fillColor=#e1d5e7;strokeColor=#9673a6;movable=0;" parent="0CC3JniCAvs3rf_kHth--132" vertex="1">
          <mxGeometry y="24" width="200" height="160" as="geometry" />
        </mxCell>
        <mxCell id="0CC3JniCAvs3rf_kHth--134" value="" style="shape=tableRow;horizontal=0;startSize=0;swimlaneHead=0;swimlaneBody=0;top=0;left=0;bottom=0;right=0;collapsible=0;dropTarget=0;fillColor=none;points=[[0,0.5],[1,0.5]];portConstraint=eastwest;" parent="0CC3JniCAvs3rf_kHth--133" vertex="1">
          <mxGeometry width="200" height="40" as="geometry" />
        </mxCell>
        <mxCell id="0CC3JniCAvs3rf_kHth--135" value="&lt;b&gt;Name&lt;/b&gt;" style="shape=partialRectangle;html=1;whiteSpace=wrap;connectable=0;overflow=hidden;fillColor=none;top=0;left=0;bottom=0;right=0;pointerEvents=1;" parent="0CC3JniCAvs3rf_kHth--134" vertex="1">
          <mxGeometry width="105" height="40" as="geometry">
            <mxRectangle width="105" height="40" as="alternateBounds" />
          </mxGeometry>
        </mxCell>
        <mxCell id="0CC3JniCAvs3rf_kHth--136" value="&lt;b&gt;Type&lt;/b&gt;" style="shape=partialRectangle;html=1;whiteSpace=wrap;connectable=0;overflow=hidden;fillColor=none;top=0;left=0;bottom=0;right=0;pointerEvents=1;" parent="0CC3JniCAvs3rf_kHth--134" vertex="1">
          <mxGeometry x="105" width="95" height="40" as="geometry">
            <mxRectangle width="95" height="40" as="alternateBounds" />
          </mxGeometry>
        </mxCell>
        <mxCell id="0CC3JniCAvs3rf_kHth--137" style="shape=tableRow;horizontal=0;startSize=0;swimlaneHead=0;swimlaneBody=0;top=0;left=0;bottom=0;right=0;collapsible=0;dropTarget=0;fillColor=none;points=[[0,0.5],[1,0.5]];portConstraint=eastwest;" parent="0CC3JniCAvs3rf_kHth--133" vertex="1">
          <mxGeometry y="40" width="200" height="40" as="geometry" />
        </mxCell>
        <mxCell id="0CC3JniCAvs3rf_kHth--138" value="id" style="shape=partialRectangle;html=1;whiteSpace=wrap;connectable=0;overflow=hidden;fillColor=none;top=0;left=0;bottom=0;right=0;pointerEvents=1;" parent="0CC3JniCAvs3rf_kHth--137" vertex="1">
          <mxGeometry width="105" height="40" as="geometry">
            <mxRectangle width="105" height="40" as="alternateBounds" />
          </mxGeometry>
        </mxCell>
        <mxCell id="0CC3JniCAvs3rf_kHth--139" value="Integer" style="shape=partialRectangle;html=1;whiteSpace=wrap;connectable=0;overflow=hidden;fillColor=none;top=0;left=0;bottom=0;right=0;pointerEvents=1;" parent="0CC3JniCAvs3rf_kHth--137" vertex="1">
          <mxGeometry x="105" width="95" height="40" as="geometry">
            <mxRectangle width="95" height="40" as="alternateBounds" />
          </mxGeometry>
        </mxCell>
        <mxCell id="0CC3JniCAvs3rf_kHth--140" value="" style="shape=tableRow;horizontal=0;startSize=0;swimlaneHead=0;swimlaneBody=0;top=0;left=0;bottom=0;right=0;collapsible=0;dropTarget=0;fillColor=none;points=[[0,0.5],[1,0.5]];portConstraint=eastwest;" parent="0CC3JniCAvs3rf_kHth--133" vertex="1">
          <mxGeometry y="80" width="200" height="40" as="geometry" />
        </mxCell>
        <mxCell id="0CC3JniCAvs3rf_kHth--141" value="type" style="shape=partialRectangle;html=1;whiteSpace=wrap;connectable=0;overflow=hidden;fillColor=none;top=0;left=0;bottom=0;right=0;pointerEvents=1;" parent="0CC3JniCAvs3rf_kHth--140" vertex="1">
          <mxGeometry width="105" height="40" as="geometry">
            <mxRectangle width="105" height="40" as="alternateBounds" />
          </mxGeometry>
        </mxCell>
        <mxCell id="0CC3JniCAvs3rf_kHth--142" value="String" style="shape=partialRectangle;html=1;whiteSpace=wrap;connectable=0;overflow=hidden;fillColor=none;top=0;left=0;bottom=0;right=0;pointerEvents=1;" parent="0CC3JniCAvs3rf_kHth--140" vertex="1">
          <mxGeometry x="105" width="95" height="40" as="geometry">
            <mxRectangle width="95" height="40" as="alternateBounds" />
          </mxGeometry>
        </mxCell>
        <mxCell id="0CC3JniCAvs3rf_kHth--143" style="shape=tableRow;horizontal=0;startSize=0;swimlaneHead=0;swimlaneBody=0;top=0;left=0;bottom=0;right=0;collapsible=0;dropTarget=0;fillColor=none;points=[[0,0.5],[1,0.5]];portConstraint=eastwest;" parent="0CC3JniCAvs3rf_kHth--133" vertex="1">
          <mxGeometry y="120" width="200" height="40" as="geometry" />
        </mxCell>
        <mxCell id="0CC3JniCAvs3rf_kHth--144" value="user_id" style="shape=partialRectangle;html=1;whiteSpace=wrap;connectable=0;overflow=hidden;fillColor=none;top=0;left=0;bottom=0;right=0;pointerEvents=1;" parent="0CC3JniCAvs3rf_kHth--143" vertex="1">
          <mxGeometry width="105" height="40" as="geometry">
            <mxRectangle width="105" height="40" as="alternateBounds" />
          </mxGeometry>
        </mxCell>
        <mxCell id="0CC3JniCAvs3rf_kHth--145" value="backref" style="shape=partialRectangle;html=1;whiteSpace=wrap;connectable=0;overflow=hidden;fillColor=none;top=0;left=0;bottom=0;right=0;pointerEvents=1;" parent="0CC3JniCAvs3rf_kHth--143" vertex="1">
          <mxGeometry x="105" width="95" height="40" as="geometry">
            <mxRectangle width="95" height="40" as="alternateBounds" />
          </mxGeometry>
        </mxCell>
        <mxCell id="0CC3JniCAvs3rf_kHth--147" style="edgeStyle=orthogonalEdgeStyle;rounded=0;orthogonalLoop=1;jettySize=auto;html=1;exitX=1;exitY=0.5;exitDx=0;exitDy=0;entryX=0;entryY=0.5;entryDx=0;entryDy=0;" parent="1" source="0CC3JniCAvs3rf_kHth--137" target="0CC3JniCAvs3rf_kHth--86" edge="1">
          <mxGeometry relative="1" as="geometry">
            <mxPoint x="300" y="490" as="targetPoint" />
            <Array as="points">
              <mxPoint x="280" y="464" />
              <mxPoint x="280" y="484" />
            </Array>
          </mxGeometry>
        </mxCell>
        <mxCell id="0CC3JniCAvs3rf_kHth--148" value="Session" style="swimlane;fontFamily=Helvetica;startSize=23;dropTarget=1;collapsible=1;container=1;rounded=0;" parent="1" vertex="1">
          <mxGeometry x="640" y="460" width="200" height="200" as="geometry">
            <mxRectangle x="380" y="110" width="80" height="23" as="alternateBounds" />
          </mxGeometry>
        </mxCell>
        <mxCell id="0CC3JniCAvs3rf_kHth--149" value="" style="shape=table;startSize=0;container=1;collapsible=0;childLayout=tableLayout;rowLines=1;swimlaneHead=0;top=0;fillColor=#e1d5e7;strokeColor=#9673a6;movable=0;" parent="0CC3JniCAvs3rf_kHth--148" vertex="1">
          <mxGeometry y="24" width="200" height="160" as="geometry" />
        </mxCell>
        <mxCell id="0CC3JniCAvs3rf_kHth--150" value="" style="shape=tableRow;horizontal=0;startSize=0;swimlaneHead=0;swimlaneBody=0;top=0;left=0;bottom=0;right=0;collapsible=0;dropTarget=0;fillColor=none;points=[[0,0.5],[1,0.5]];portConstraint=eastwest;" parent="0CC3JniCAvs3rf_kHth--149" vertex="1">
          <mxGeometry width="200" height="40" as="geometry" />
        </mxCell>
        <mxCell id="0CC3JniCAvs3rf_kHth--151" value="&lt;b&gt;Name&lt;/b&gt;" style="shape=partialRectangle;html=1;whiteSpace=wrap;connectable=0;overflow=hidden;fillColor=none;top=0;left=0;bottom=0;right=0;pointerEvents=1;" parent="0CC3JniCAvs3rf_kHth--150" vertex="1">
          <mxGeometry width="105" height="40" as="geometry">
            <mxRectangle width="105" height="40" as="alternateBounds" />
          </mxGeometry>
        </mxCell>
        <mxCell id="0CC3JniCAvs3rf_kHth--152" value="&lt;b&gt;Type&lt;/b&gt;" style="shape=partialRectangle;html=1;whiteSpace=wrap;connectable=0;overflow=hidden;fillColor=none;top=0;left=0;bottom=0;right=0;pointerEvents=1;" parent="0CC3JniCAvs3rf_kHth--150" vertex="1">
          <mxGeometry x="105" width="95" height="40" as="geometry">
            <mxRectangle width="95" height="40" as="alternateBounds" />
          </mxGeometry>
        </mxCell>
        <mxCell id="0CC3JniCAvs3rf_kHth--153" style="shape=tableRow;horizontal=0;startSize=0;swimlaneHead=0;swimlaneBody=0;top=0;left=0;bottom=0;right=0;collapsible=0;dropTarget=0;fillColor=none;points=[[0,0.5],[1,0.5]];portConstraint=eastwest;" parent="0CC3JniCAvs3rf_kHth--149" vertex="1">
          <mxGeometry y="40" width="200" height="40" as="geometry" />
        </mxCell>
        <mxCell id="0CC3JniCAvs3rf_kHth--154" value="id" style="shape=partialRectangle;html=1;whiteSpace=wrap;connectable=0;overflow=hidden;fillColor=none;top=0;left=0;bottom=0;right=0;pointerEvents=1;" parent="0CC3JniCAvs3rf_kHth--153" vertex="1">
          <mxGeometry width="105" height="40" as="geometry">
            <mxRectangle width="105" height="40" as="alternateBounds" />
          </mxGeometry>
        </mxCell>
        <mxCell id="0CC3JniCAvs3rf_kHth--155" value="Integer" style="shape=partialRectangle;html=1;whiteSpace=wrap;connectable=0;overflow=hidden;fillColor=none;top=0;left=0;bottom=0;right=0;pointerEvents=1;" parent="0CC3JniCAvs3rf_kHth--153" vertex="1">
          <mxGeometry x="105" width="95" height="40" as="geometry">
            <mxRectangle width="95" height="40" as="alternateBounds" />
          </mxGeometry>
        </mxCell>
        <mxCell id="0CC3JniCAvs3rf_kHth--156" value="" style="shape=tableRow;horizontal=0;startSize=0;swimlaneHead=0;swimlaneBody=0;top=0;left=0;bottom=0;right=0;collapsible=0;dropTarget=0;fillColor=none;points=[[0,0.5],[1,0.5]];portConstraint=eastwest;" parent="0CC3JniCAvs3rf_kHth--149" vertex="1">
          <mxGeometry y="80" width="200" height="40" as="geometry" />
        </mxCell>
        <mxCell id="0CC3JniCAvs3rf_kHth--157" value="user_id" style="shape=partialRectangle;html=1;whiteSpace=wrap;connectable=0;overflow=hidden;fillColor=none;top=0;left=0;bottom=0;right=0;pointerEvents=1;" parent="0CC3JniCAvs3rf_kHth--156" vertex="1">
          <mxGeometry width="105" height="40" as="geometry">
            <mxRectangle width="105" height="40" as="alternateBounds" />
          </mxGeometry>
        </mxCell>
        <mxCell id="0CC3JniCAvs3rf_kHth--158" value="ID" style="shape=partialRectangle;html=1;whiteSpace=wrap;connectable=0;overflow=hidden;fillColor=none;top=0;left=0;bottom=0;right=0;pointerEvents=1;" parent="0CC3JniCAvs3rf_kHth--156" vertex="1">
          <mxGeometry x="105" width="95" height="40" as="geometry">
            <mxRectangle width="95" height="40" as="alternateBounds" />
          </mxGeometry>
        </mxCell>
        <mxCell id="0CC3JniCAvs3rf_kHth--159" style="shape=tableRow;horizontal=0;startSize=0;swimlaneHead=0;swimlaneBody=0;top=0;left=0;bottom=0;right=0;collapsible=0;dropTarget=0;fillColor=none;points=[[0,0.5],[1,0.5]];portConstraint=eastwest;" parent="0CC3JniCAvs3rf_kHth--149" vertex="1">
          <mxGeometry y="120" width="200" height="40" as="geometry" />
        </mxCell>
        <mxCell id="0CC3JniCAvs3rf_kHth--160" value="counsellor_id" style="shape=partialRectangle;html=1;whiteSpace=wrap;connectable=0;overflow=hidden;fillColor=none;top=0;left=0;bottom=0;right=0;pointerEvents=1;" parent="0CC3JniCAvs3rf_kHth--159" vertex="1">
          <mxGeometry width="105" height="40" as="geometry">
            <mxRectangle width="105" height="40" as="alternateBounds" />
          </mxGeometry>
        </mxCell>
        <mxCell id="0CC3JniCAvs3rf_kHth--161" value="ID" style="shape=partialRectangle;html=1;whiteSpace=wrap;connectable=0;overflow=hidden;fillColor=none;top=0;left=0;bottom=0;right=0;pointerEvents=1;" parent="0CC3JniCAvs3rf_kHth--159" vertex="1">
          <mxGeometry x="105" width="95" height="40" as="geometry">
            <mxRectangle width="95" height="40" as="alternateBounds" />
          </mxGeometry>
        </mxCell>
        <mxCell id="0CC3JniCAvs3rf_kHth--163" style="edgeStyle=orthogonalEdgeStyle;curved=0;rounded=1;sketch=0;orthogonalLoop=1;jettySize=auto;html=1;entryX=1.01;entryY=0.725;entryDx=0;entryDy=0;entryPerimeter=0;fontColor=#143642;strokeColor=#000000;fillColor=#FAE5C7;" parent="1" source="0CC3JniCAvs3rf_kHth--156" target="0CC3JniCAvs3rf_kHth--56" edge="1">
          <mxGeometry relative="1" as="geometry" />
        </mxCell>
        <mxCell id="0CC3JniCAvs3rf_kHth--164" style="edgeStyle=orthogonalEdgeStyle;curved=0;rounded=1;sketch=0;orthogonalLoop=1;jettySize=auto;html=1;entryX=1.01;entryY=0.775;entryDx=0;entryDy=0;entryPerimeter=0;fontColor=#143642;strokeColor=#000000;fillColor=#FAE5C7;" parent="1" source="0CC3JniCAvs3rf_kHth--159" target="0CC3JniCAvs3rf_kHth--56" edge="1">
          <mxGeometry relative="1" as="geometry">
            <Array as="points">
              <mxPoint x="570" y="624" />
              <mxPoint x="570" y="135" />
            </Array>
          </mxGeometry>
        </mxCell>
        <mxCell id="0CC3JniCAvs3rf_kHth--165" style="edgeStyle=orthogonalEdgeStyle;curved=0;rounded=1;sketch=0;orthogonalLoop=1;jettySize=auto;html=1;entryX=0;entryY=0.5;entryDx=0;entryDy=0;fontColor=#143642;strokeColor=#000000;fillColor=#FAE5C7;" parent="1" source="0CC3JniCAvs3rf_kHth--105" target="0CC3JniCAvs3rf_kHth--153" edge="1">
          <mxGeometry relative="1" as="geometry">
            <Array as="points">
              <mxPoint x="590" y="604" />
              <mxPoint x="590" y="544" />
            </Array>
          </mxGeometry>
        </mxCell>
        <mxCell id="0CC3JniCAvs3rf_kHth--167" value="CounsellorTypeAssociation" style="swimlane;fontFamily=Helvetica;startSize=23;dropTarget=1;collapsible=1;container=1;rounded=0;" parent="1" vertex="1">
          <mxGeometry x="20" y="600" width="200" height="200" as="geometry">
            <mxRectangle x="380" y="110" width="80" height="23" as="alternateBounds" />
          </mxGeometry>
        </mxCell>
        <mxCell id="0CC3JniCAvs3rf_kHth--168" value="" style="shape=table;startSize=0;container=1;collapsible=0;childLayout=tableLayout;rowLines=1;swimlaneHead=0;top=0;fillColor=#e1d5e7;strokeColor=#9673a6;movable=0;" parent="0CC3JniCAvs3rf_kHth--167" vertex="1">
          <mxGeometry y="24" width="200" height="160" as="geometry" />
        </mxCell>
        <mxCell id="0CC3JniCAvs3rf_kHth--169" value="" style="shape=tableRow;horizontal=0;startSize=0;swimlaneHead=0;swimlaneBody=0;top=0;left=0;bottom=0;right=0;collapsible=0;dropTarget=0;fillColor=none;points=[[0,0.5],[1,0.5]];portConstraint=eastwest;" parent="0CC3JniCAvs3rf_kHth--168" vertex="1">
          <mxGeometry width="200" height="40" as="geometry" />
        </mxCell>
        <mxCell id="0CC3JniCAvs3rf_kHth--170" value="&lt;b&gt;Name&lt;/b&gt;" style="shape=partialRectangle;html=1;whiteSpace=wrap;connectable=0;overflow=hidden;fillColor=none;top=0;left=0;bottom=0;right=0;pointerEvents=1;" parent="0CC3JniCAvs3rf_kHth--169" vertex="1">
          <mxGeometry width="105" height="40" as="geometry">
            <mxRectangle width="105" height="40" as="alternateBounds" />
          </mxGeometry>
        </mxCell>
        <mxCell id="0CC3JniCAvs3rf_kHth--171" value="&lt;b&gt;Type&lt;/b&gt;" style="shape=partialRectangle;html=1;whiteSpace=wrap;connectable=0;overflow=hidden;fillColor=none;top=0;left=0;bottom=0;right=0;pointerEvents=1;" parent="0CC3JniCAvs3rf_kHth--169" vertex="1">
          <mxGeometry x="105" width="95" height="40" as="geometry">
            <mxRectangle width="95" height="40" as="alternateBounds" />
          </mxGeometry>
        </mxCell>
        <mxCell id="0CC3JniCAvs3rf_kHth--172" style="shape=tableRow;horizontal=0;startSize=0;swimlaneHead=0;swimlaneBody=0;top=0;left=0;bottom=0;right=0;collapsible=0;dropTarget=0;fillColor=none;points=[[0,0.5],[1,0.5]];portConstraint=eastwest;" parent="0CC3JniCAvs3rf_kHth--168" vertex="1">
          <mxGeometry y="40" width="200" height="40" as="geometry" />
        </mxCell>
        <mxCell id="0CC3JniCAvs3rf_kHth--173" value="id" style="shape=partialRectangle;html=1;whiteSpace=wrap;connectable=0;overflow=hidden;fillColor=none;top=0;left=0;bottom=0;right=0;pointerEvents=1;" parent="0CC3JniCAvs3rf_kHth--172" vertex="1">
          <mxGeometry width="105" height="40" as="geometry">
            <mxRectangle width="105" height="40" as="alternateBounds" />
          </mxGeometry>
        </mxCell>
        <mxCell id="0CC3JniCAvs3rf_kHth--174" value="Integer" style="shape=partialRectangle;html=1;whiteSpace=wrap;connectable=0;overflow=hidden;fillColor=none;top=0;left=0;bottom=0;right=0;pointerEvents=1;" parent="0CC3JniCAvs3rf_kHth--172" vertex="1">
          <mxGeometry x="105" width="95" height="40" as="geometry">
            <mxRectangle width="95" height="40" as="alternateBounds" />
          </mxGeometry>
        </mxCell>
        <mxCell id="0CC3JniCAvs3rf_kHth--175" value="" style="shape=tableRow;horizontal=0;startSize=0;swimlaneHead=0;swimlaneBody=0;top=0;left=0;bottom=0;right=0;collapsible=0;dropTarget=0;fillColor=none;points=[[0,0.5],[1,0.5]];portConstraint=eastwest;" parent="0CC3JniCAvs3rf_kHth--168" vertex="1">
          <mxGeometry y="80" width="200" height="40" as="geometry" />
        </mxCell>
        <mxCell id="0CC3JniCAvs3rf_kHth--176" value="type_id" style="shape=partialRectangle;html=1;whiteSpace=wrap;connectable=0;overflow=hidden;fillColor=none;top=0;left=0;bottom=0;right=0;pointerEvents=1;" parent="0CC3JniCAvs3rf_kHth--175" vertex="1">
          <mxGeometry width="105" height="40" as="geometry">
            <mxRectangle width="105" height="40" as="alternateBounds" />
          </mxGeometry>
        </mxCell>
        <mxCell id="0CC3JniCAvs3rf_kHth--177" value="ID" style="shape=partialRectangle;html=1;whiteSpace=wrap;connectable=0;overflow=hidden;fillColor=none;top=0;left=0;bottom=0;right=0;pointerEvents=1;" parent="0CC3JniCAvs3rf_kHth--175" vertex="1">
          <mxGeometry x="105" width="95" height="40" as="geometry">
            <mxRectangle width="95" height="40" as="alternateBounds" />
          </mxGeometry>
        </mxCell>
        <mxCell id="0CC3JniCAvs3rf_kHth--178" style="shape=tableRow;horizontal=0;startSize=0;swimlaneHead=0;swimlaneBody=0;top=0;left=0;bottom=0;right=0;collapsible=0;dropTarget=0;fillColor=none;points=[[0,0.5],[1,0.5]];portConstraint=eastwest;" parent="0CC3JniCAvs3rf_kHth--168" vertex="1">
          <mxGeometry y="120" width="200" height="40" as="geometry" />
        </mxCell>
        <mxCell id="0CC3JniCAvs3rf_kHth--179" value="cousellor_id" style="shape=partialRectangle;html=1;whiteSpace=wrap;connectable=0;overflow=hidden;fillColor=none;top=0;left=0;bottom=0;right=0;pointerEvents=1;" parent="0CC3JniCAvs3rf_kHth--178" vertex="1">
          <mxGeometry width="105" height="40" as="geometry">
            <mxRectangle width="105" height="40" as="alternateBounds" />
          </mxGeometry>
        </mxCell>
        <mxCell id="0CC3JniCAvs3rf_kHth--180" value="ID" style="shape=partialRectangle;html=1;whiteSpace=wrap;connectable=0;overflow=hidden;fillColor=none;top=0;left=0;bottom=0;right=0;pointerEvents=1;" parent="0CC3JniCAvs3rf_kHth--178" vertex="1">
          <mxGeometry x="105" width="95" height="40" as="geometry">
            <mxRectangle width="95" height="40" as="alternateBounds" />
          </mxGeometry>
        </mxCell>
        <mxCell id="0CC3JniCAvs3rf_kHth--182" style="edgeStyle=orthogonalEdgeStyle;curved=0;rounded=1;sketch=0;orthogonalLoop=1;jettySize=auto;html=1;entryX=0;entryY=0.5;entryDx=0;entryDy=0;fontColor=#143642;strokeColor=#000000;fillColor=#FAE5C7;" parent="1" source="0CC3JniCAvs3rf_kHth--137" target="0CC3JniCAvs3rf_kHth--175" edge="1">
          <mxGeometry relative="1" as="geometry">
            <Array as="points">
              <mxPoint x="-30" y="464" />
              <mxPoint x="-30" y="724" />
            </Array>
          </mxGeometry>
        </mxCell>
        <mxCell id="0CC3JniCAvs3rf_kHth--183" style="edgeStyle=orthogonalEdgeStyle;curved=0;rounded=1;sketch=0;orthogonalLoop=1;jettySize=auto;html=1;entryX=0;entryY=0.5;entryDx=0;entryDy=0;fontColor=#143642;strokeColor=#000000;fillColor=#FAE5C7;exitX=1;exitY=0.5;exitDx=0;exitDy=0;" parent="1" source="0CC3JniCAvs3rf_kHth--178" target="0CC3JniCAvs3rf_kHth--56" edge="1">
          <mxGeometry relative="1" as="geometry">
            <mxPoint x="230" y="764" as="sourcePoint" />
            <Array as="points">
              <mxPoint x="300" y="764" />
              <mxPoint x="300" y="124" />
            </Array>
          </mxGeometry>
        </mxCell>
      </root>
    </mxGraphModel>
  </diagram>
</mxfile>
